<mxfile host="drawio-plugin" modified="2022-06-15T21:53:43.401Z" agent="5.0 (X11; Linux x86_64) AppleWebKit/537.36 (KHTML, like Gecko) Chrome/84.0.4147.105 Safari/537.36" etag="22GeaTIlJD98aM-_EwVS" version="14.7.4" type="embed"><diagram id="kgpKYQtTHZ0yAKxKKP6v" name="Page-1"><mxGraphModel dx="1118" dy="725" grid="1" gridSize="10" guides="1" tooltips="1" connect="1" arrows="1" fold="1" page="1" pageScale="1" pageWidth="850" pageHeight="1100" math="0" shadow="0"><root><mxCell id="0"/><mxCell id="1" parent="0"/><mxCell id="CCgCbRlykzWL-sHurvyo-1" value="&lt;p style=&quot;margin: 4px 0px 0px ; text-align: center ; text-decoration: underline ; font-size: 16px&quot;&gt;Heartbeat&lt;/p&gt;&lt;hr style=&quot;font-size: 16px&quot;&gt;&lt;p style=&quot;margin: 0px 0px 0px 8px ; font-size: 16px&quot;&gt;Node UID&lt;/p&gt;&lt;p style=&quot;margin: 0px 0px 0px 8px ; font-size: 16px&quot;&gt;Node role&lt;br style=&quot;font-size: 16px&quot;&gt;Shard epoch&lt;/p&gt;&lt;p style=&quot;margin: 0px 0px 0px 8px ; font-size: 16px&quot;&gt;Cluster epoch&lt;br style=&quot;font-size: 16px&quot;&gt;&lt;/p&gt;&lt;p style=&quot;margin: 0px 0px 0px 8px ; font-size: 16px&quot;&gt;Replication offset&lt;br style=&quot;font-size: 16px&quot;&gt;&lt;/p&gt;" style="verticalAlign=top;align=left;overflow=fill;fontSize=16;fontFamily=Helvetica;html=1;" parent="1" vertex="1"><mxGeometry x="620" y="70" width="150" height="140" as="geometry"/></mxCell><mxCell id="3nuBFxr9cyL0pnOWT2aG-1" value="Node" style="shape=umlLifeline;perimeter=lifelinePerimeter;container=0;collapsible=0;recursiveResize=0;rounded=0;shadow=0;strokeWidth=1;fontSize=16;" parent="1" vertex="1"><mxGeometry x="27.5" y="50" width="100" height="97.91666666666666" as="geometry"/></mxCell><mxCell id="3nuBFxr9cyL0pnOWT2aG-5" value="Failover Coordinator" style="shape=umlLifeline;perimeter=lifelinePerimeter;container=0;collapsible=0;recursiveResize=0;rounded=0;shadow=0;strokeWidth=1;fontSize=16;whiteSpace=wrap;" parent="1" vertex="1"><mxGeometry x="460" y="50" width="120" height="97.91666666666666" as="geometry"/></mxCell><mxCell id="3nuBFxr9cyL0pnOWT2aG-6" value="" style="points=[];perimeter=orthogonalPerimeter;rounded=0;shadow=0;strokeWidth=1;fontSize=16;" parent="1" vertex="1"><mxGeometry x="492.5" y="107.91666666666666" width="55" height="372.0833333333333" as="geometry"/></mxCell><mxCell id="3nuBFxr9cyL0pnOWT2aG-2" value="If primary HB not seen for more then Y+Z ticks AND I am the replica with the highest replication offset (that reported HB in the last Z ticks, UID for tiebreaker) - send a heartbeat with my role=Primary.&#10;&#10;Y+Z in order to ensure there's not a more up-to-date *live* replica which just hasn't sent a HB yet.&#10;&#10;In case of manual failover, can do the current OSS primary / replica notification scheme and send the adjusted HB when done." style="points=[];perimeter=orthogonalPerimeter;rounded=0;shadow=0;strokeWidth=1;whiteSpace=wrap;align=left;fontSize=16;" parent="1" vertex="1"><mxGeometry y="107.91999999999999" width="250" height="372.08" as="geometry"/></mxCell><mxCell id="3nuBFxr9cyL0pnOWT2aG-7" value="ACK / NACK / MOVED" style="verticalAlign=bottom;endArrow=open;endSize=8;exitX=-0.027;exitY=0.855;shadow=0;strokeWidth=1;fontSize=16;exitDx=0;exitDy=0;exitPerimeter=0;" parent="1" source="3nuBFxr9cyL0pnOWT2aG-6" target="3nuBFxr9cyL0pnOWT2aG-2" edge="1"><mxGeometry y="10" as="geometry"><mxPoint x="275" y="276.3333333333333" as="targetPoint"/></mxGeometry></mxCell><mxCell id="3nuBFxr9cyL0pnOWT2aG-8" value="Heartbeat" style="verticalAlign=bottom;endArrow=block;entryX=-0.045;entryY=0.068;shadow=0;strokeWidth=1;fontSize=16;entryDx=0;entryDy=0;entryPerimeter=0;exitX=1.013;exitY=0.068;exitDx=0;exitDy=0;exitPerimeter=0;" parent="1" source="3nuBFxr9cyL0pnOWT2aG-2" target="3nuBFxr9cyL0pnOWT2aG-6" edge="1"><mxGeometry y="10" as="geometry"><mxPoint x="151" y="145.125" as="sourcePoint"/><Array as="points"/><mxPoint as="offset"/></mxGeometry></mxCell><mxCell id="3nuBFxr9cyL0pnOWT2aG-9" value="ACK / NACK / MOVED" style="verticalAlign=bottom;endArrow=block;shadow=0;strokeWidth=1;fontSize=16;" parent="1" source="3nuBFxr9cyL0pnOWT2aG-6" edge="1"><mxGeometry y="10" as="geometry"><mxPoint x="240" y="205.83333333333331" as="sourcePoint"/><mxPoint x="253" y="170" as="targetPoint"/></mxGeometry></mxCell><mxCell id="3nuBFxr9cyL0pnOWT2aG-10" value="HeartBeat" style="verticalAlign=bottom;endArrow=open;endSize=8;shadow=0;strokeWidth=1;fontSize=16;exitX=1.004;exitY=0.758;exitDx=0;exitDy=0;exitPerimeter=0;" parent="1" source="3nuBFxr9cyL0pnOWT2aG-2" target="3nuBFxr9cyL0pnOWT2aG-6" edge="1"><mxGeometry y="-90" as="geometry"><mxPoint x="240" y="317.4583333333333" as="targetPoint"/><mxPoint x="250" y="390" as="sourcePoint"/><mxPoint x="1" y="-3" as="offset"/></mxGeometry></mxCell><mxCell id="CCgCbRlykzWL-sHurvyo-8" value="&lt;p style=&quot;margin: 4px 0px 0px ; text-align: center ; text-decoration: underline ; font-size: 16px&quot;&gt;ACK/NACK&lt;/p&gt;&lt;hr style=&quot;font-size: 16px&quot;&gt;&amp;nbsp;For every node in the shard&lt;p style=&quot;margin: 0px 0px 0px 8px ; font-size: 16px&quot;&gt;- Node UID&lt;/p&gt;&lt;p style=&quot;margin: 0px 0px 0px 8px ; font-size: 16px&quot;&gt;- Node role&lt;/p&gt;&lt;p style=&quot;margin: 0px 0px 0px 8px ; font-size: 16px&quot;&gt;- Node replication offset&lt;/p&gt;&lt;p style=&quot;margin: 0px 0px 0px 8px ; font-size: 16px&quot;&gt;- FC tick of its last HB&lt;/p&gt;&lt;p style=&quot;margin: 0px 0px 0px 8px ; font-size: 16px&quot;&gt;&lt;br&gt;&lt;/p&gt;&lt;p style=&quot;margin: 0px 0px 0px 8px ; font-size: 16px&quot;&gt;In case of an outdated cluster epoch&lt;/p&gt;&lt;p style=&quot;margin: 0px 0px 0px 8px ; font-size: 16px&quot;&gt;also the full cluster topology info.&lt;/p&gt;" style="verticalAlign=top;align=left;overflow=fill;fontSize=16;fontFamily=Helvetica;html=1;" parent="1" vertex="1"><mxGeometry x="580" y="230" width="260" height="200" as="geometry"/></mxCell><mxCell id="CCgCbRlykzWL-sHurvyo-9" value="Failover Status" style="endArrow=classic;html=1;fontSize=16;exitX=1.027;exitY=0.868;exitDx=0;exitDy=0;exitPerimeter=0;" parent="1" edge="1"><mxGeometry x="-0.0794" y="10" width="50" height="50" relative="1" as="geometry"><mxPoint x="547.5049999999999" y="470.885" as="sourcePoint"/><mxPoint x="710" y="470" as="targetPoint"/><mxPoint as="offset"/></mxGeometry></mxCell><mxCell id="CCgCbRlykzWL-sHurvyo-10" value="&lt;div align=&quot;center&quot;&gt;Topology Director&lt;/div&gt;" style="ellipse;shape=cloud;whiteSpace=wrap;html=1;fontSize=16;align=center;" parent="1" vertex="1"><mxGeometry x="670" y="430" width="178.52" height="190" as="geometry"/></mxCell></root></mxGraphModel></diagram></mxfile>